<svg xmlns="http://www.w3.org/2000/svg" aria-hidden="true" style="position:absolute;width:0;height:0;overflow:hidden"><defs><symbol id="facebook" viewBox="0 0 32 32"><path  d="M21.329 5.313h2.921V.225C23.746.156 22.013 0 19.994 0c-4.212 0-7.097 2.649-7.097 7.519V12H8.249v5.688h4.648V32h5.699V17.689h4.46l.708-5.688h-5.169V8.082c.001-1.644.444-2.769 2.735-2.769z" /></symbol><symbol id="instagram" viewBox="0 0 32 32"><path  d="M31.969 9.408c-.075-1.7-.35-2.869-.744-3.882a7.793 7.793 0 0 0-1.851-2.838A7.867 7.867 0 0 0 26.542.844C25.523.45 24.36.175 22.66.1 20.947.019 20.403 0 16.059 0s-4.888.019-6.595.094c-1.7.075-2.869.35-3.882.744a7.803 7.803 0 0 0-2.838 1.85A7.867 7.867 0 0 0 .9 5.52C.506 6.539.231 7.702.156 9.402c-.081 1.713-.1 2.257-.1 6.601s.019 4.888.094 6.595c.075 1.7.35 2.869.744 3.882a7.895 7.895 0 0 0 1.85 2.838 7.867 7.867 0 0 0 2.832 1.844c1.019.394 2.182.669 3.882.744 1.706.075 2.25.094 6.595.094s4.888-.019 6.595-.094c1.7-.075 2.869-.35 3.882-.744a8.181 8.181 0 0 0 4.682-4.682c.394-1.019.669-2.182.744-3.882.075-1.707.094-2.25.094-6.595s-.006-4.888-.081-6.595zm-2.882 13.065c-.069 1.563-.331 2.407-.55 2.969a5.31 5.31 0 0 1-3.038 3.038c-.563.219-1.413.481-2.969.55-1.688.075-2.194.094-6.464.094s-4.782-.019-6.464-.094c-1.563-.069-2.407-.331-2.969-.55a4.926 4.926 0 0 1-1.838-1.194 4.974 4.974 0 0 1-1.194-1.838c-.219-.563-.481-1.413-.55-2.969-.075-1.688-.094-2.194-.094-6.464s.019-4.782.094-6.464c.069-1.563.331-2.407.55-2.969a4.868 4.868 0 0 1 1.2-1.838A4.974 4.974 0 0 1 6.639 3.55c.563-.219 1.413-.481 2.969-.55 1.688-.075 2.194-.094 6.464-.094 4.276 0 4.782.019 6.464.094 1.563.069 2.407.331 2.969.55a4.914 4.914 0 0 1 1.838 1.194 4.974 4.974 0 0 1 1.194 1.838c.219.563.481 1.413.55 2.969.075 1.688.094 2.194.094 6.464s-.019 4.77-.094 6.458z" /><path  d="M16.059 7.783c-4.538 0-8.22 3.682-8.22 8.22s3.682 8.22 8.22 8.22 8.22-3.682 8.22-8.22-3.682-8.22-8.22-8.22zm0 13.553a5.333 5.333 0 0 1 0-10.664 5.333 5.333 0 0 1 0 10.664zM26.524 7.457a1.919 1.919 0 1 1-3.838 0 1.919 1.919 0 0 1 3.838 0z" /></symbol><symbol id="pinterest" viewBox="0 0 32 32"><path  d="M16.435 0C7.663.001 3 5.621 3 11.749c0 2.841 1.588 6.387 4.131 7.511.725.327.629-.072 1.253-2.459a.567.567 0 0 0-.136-.556c-3.635-4.204-.709-12.847 7.668-12.847 12.124 0 9.859 16.776 2.109 16.776-1.997 0-3.485-1.568-3.015-3.508.571-2.311 1.688-4.795 1.688-6.46 0-4.197-6.253-3.575-6.253 1.987 0 1.719.608 2.879.608 2.879S9.041 23.2 8.668 24.719c-.632 2.571.085 6.732.148 7.091.039.197.26.26.384.097.199-.26 2.631-3.729 3.312-6.237.248-.913 1.265-4.62 1.265-4.62.671 1.211 2.604 2.224 4.664 2.224 6.128 0 10.557-5.387 10.557-12.071C28.977 4.795 23.493 0 16.434 0z" /></symbol></defs></svg>